# Blender v2.93.5 OBJ File: 'axes.blend'
# www.blender.org
mtllib axes.mtl
o boxleft
v -16.350107 20.520838 6.218741
v -16.350107 20.520838 -3.781259
v -6.350106 20.520838 -3.781259
v -6.350106 20.520838 6.218741
v -16.350107 30.520836 6.218742
v -6.350106 30.520836 6.218742
v -6.350106 30.520840 -3.781257
v -16.350107 30.520840 -3.781257
vt 1.000000 0.000000
vt 1.000000 1.000000
vt 0.000000 1.000000
vt 0.000000 0.000000
vt 0.000000 0.000000
vt 1.000000 0.000000
vt 1.000000 1.000000
vt 0.000000 1.000000
vt 0.000000 0.000000
vt 1.000000 0.000000
vt 1.000000 1.000000
vt 0.000000 1.000000
vt 1.000000 0.000000
vt 0.000000 1.000000
vt 0.000000 0.000000
vt 1.000000 0.000000
vt 1.000000 1.000000
vt 0.000000 1.000000
vt 0.000000 0.000000
vt 1.000000 1.000000
vn 0.0000 -1.0000 0.0000
vn 0.0000 1.0000 0.0000
vn 0.0000 -0.0000 1.0000
vn 1.0000 0.0000 0.0000
vn 0.0000 0.0000 -1.0000
vn -1.0000 -0.0000 0.0000
usemtl 01___Default
s 1
f 1/1/1 2/2/1 3/3/1
f 3/3/1 4/4/1 1/1/1
f 5/5/2 6/6/2 7/7/2
f 7/7/2 8/8/2 5/5/2
f 1/9/3 4/10/3 6/11/3
f 6/11/3 5/12/3 1/9/3
f 4/4/4 3/13/4 7/7/4
f 7/7/4 6/14/4 4/4/4
f 3/15/5 2/16/5 8/17/5
f 8/17/5 7/18/5 3/15/5
f 2/19/6 1/1/6 5/20/6
f 5/20/6 8/8/6 2/19/6
